<svg xmlns="http://www.w3.org/2000/svg" viewBox="0 0 167 49.42"><defs><style>.cls-1{fill:#fff;}</style></defs><title>ISM_1Asset 1</title><g id="Layer_2" data-name="Layer 2"><g id="Layer_1-2" data-name="Layer 1"><g id="appraisal_logo_white"><g id="appraisal_logo"><path class="cls-1" d="M10.17,27.49l8,4.6a.29.29,0,0,0,.44-.26V11.34a.79.79,0,0,0-.39-.68l-8-4.6a.29.29,0,0,0-.44.25V26.8A.81.81,0,0,0,10.17,27.49Z"/><path class="cls-1" d="M18.1,33.18,9.68,28.33a.73.73,0,0,0-.78,0l-8,4.6a.29.29,0,0,0,0,.51l8,4.6a.78.78,0,0,0,.78,0Z"/><path class="cls-1" d="M18.67.11l-8,4.6a.3.3,0,0,0,0,.51l8,4.6a.8.8,0,0,0,.79,0l8-4.6a.29.29,0,0,0,0-.51l-8-4.6A.75.75,0,0,0,18.67.11Z"/><path class="cls-1" d="M8.51,17.26.39,22a.79.79,0,0,0-.39.68v9.2a.3.3,0,0,0,.44.26l8-4.6a.79.79,0,0,0,.4-.69V17.43A.2.2,0,0,0,8.51,17.26Z"/><path class="cls-1" d="M20,43.36l8-4.6a.78.78,0,0,0,.4-.68V6.31a.29.29,0,0,0-.44-.25l-8,4.6a.79.79,0,0,0-.39.68V43.11A.29.29,0,0,0,20,43.36Z"/><path class="cls-1" d="M37.74,21.94l-8-4.61a.29.29,0,0,0-.44.26V38.08a.79.79,0,0,0,.39.68l8,4.6a.29.29,0,0,0,.44-.25V22.62A.79.79,0,0,0,37.74,21.94Z"/><path class="cls-1" d="M29.81,16.24l8.41,4.86a.8.8,0,0,0,.79,0l8-4.61A.29.29,0,0,0,47,16l-8-4.6a.8.8,0,0,0-.79,0Z"/><path class="cls-1" d="M29.23,49.32l8-4.61a.3.3,0,0,0,0-.51l-8-4.6a.78.78,0,0,0-.78,0l-8,4.6a.29.29,0,0,0,0,.51l8,4.61A.78.78,0,0,0,29.23,49.32Z"/><path class="cls-1" d="M39.4,32.16l8.12-4.69a.79.79,0,0,0,.39-.68v-9.2a.3.3,0,0,0-.44-.26l-8,4.61a.78.78,0,0,0-.4.68V32A.2.2,0,0,0,39.4,32.16Z"/><path class="cls-1" d="M64.3,28.28a1.39,1.39,0,0,0,.4-.06v2.17a5.25,5.25,0,0,1-1.78.31,2.63,2.63,0,0,1-2.35-1.1,5.33,5.33,0,0,1-3.45,1.2c-1.9,0-3.44-1.14-3.44-3.06,0-2.49,2.37-3.26,4.29-3.26a10.65,10.65,0,0,1,2.15.23v-.35c0-.7-.67-1.24-2.07-1.24a9.18,9.18,0,0,0-3.47.77v-3a14,14,0,0,1,3.86-.66c3.16,0,5.18,1.1,5.18,4.63v2.76C63.62,28.14,64,28.28,64.3,28.28Zm-5.82.15a2.64,2.64,0,0,0,1.64-.52V26.57a4.4,4.4,0,0,0-1.26-.19c-.83,0-1.57.29-1.57,1.08A1.06,1.06,0,0,0,58.48,28.43Z"/><path class="cls-1" d="M72.42,20.27c3.32,0,4.78,2.71,4.78,5.27s-1.46,5.26-4.78,5.26a4,4,0,0,1-3-1.12V35H66V20.58h3.09v1.35A3.76,3.76,0,0,1,72.42,20.27Zm-1,2.89a2.24,2.24,0,0,0-2,1.24v2.27a2.24,2.24,0,0,0,2,1.24,2.15,2.15,0,0,0,2.12-2.37A2.16,2.16,0,0,0,71.47,23.16Z"/><path class="cls-1" d="M85.29,20.27c3.33,0,4.79,2.71,4.79,5.27s-1.46,5.26-4.79,5.26a4,4,0,0,1-3-1.12V35H78.83V20.58h3.1v1.35A3.75,3.75,0,0,1,85.29,20.27Zm-1,2.89a2.23,2.23,0,0,0-2,1.24v2.27a2.23,2.23,0,0,0,2,1.24,2.15,2.15,0,0,0,2.13-2.37A2.16,2.16,0,0,0,84.34,23.16Z"/><path class="cls-1" d="M98.69,20.38v3.4a3.33,3.33,0,0,0-3.47,1.08v5.63H91.71V20.58h3.1v1.35A3.9,3.9,0,0,1,98.69,20.38Z"/><path class="cls-1" d="M109.91,28.28a1.39,1.39,0,0,0,.4-.06v2.17a5.25,5.25,0,0,1-1.78.31,2.63,2.63,0,0,1-2.35-1.1,5.33,5.33,0,0,1-3.45,1.2c-1.9,0-3.44-1.14-3.44-3.06,0-2.49,2.37-3.26,4.29-3.26a10.57,10.57,0,0,1,2.15.23v-.35c0-.7-.66-1.24-2.07-1.24a9.18,9.18,0,0,0-3.47.77v-3a14,14,0,0,1,3.86-.66c3.16,0,5.18,1.1,5.18,4.63v2.76C109.23,28.14,109.56,28.28,109.91,28.28Zm-5.81.15a2.63,2.63,0,0,0,1.63-.52V26.57a4.4,4.4,0,0,0-1.26-.19c-.83,0-1.57.29-1.57,1.08A1.07,1.07,0,0,0,104.1,28.43Z"/><path class="cls-1" d="M113.34,19.18a1.83,1.83,0,0,1-2-1.94,2,2,0,0,1,4,0A1.82,1.82,0,0,1,113.34,19.18Zm-1.75,1.4h3.51v9.91h-3.51Z"/><path class="cls-1" d="M121.18,20.27a8.74,8.74,0,0,1,3.74.85v2.79a6.86,6.86,0,0,0-3.49-1.06c-.43,0-1,.09-1,.5,0,1.38,5.2.58,5.2,4.25,0,2.48-2.23,3.2-4.72,3.2a8.14,8.14,0,0,1-4-.91V27.1a7.29,7.29,0,0,0,3.8,1.06c.87,0,1.3-.15,1.3-.5,0-1.3-5.2-.66-5.2-4.23C116.87,21,119,20.27,121.18,20.27Z"/><path class="cls-1" d="M132,20.27c4.25,0,5.53,3.31,4.83,6.32h-6.48c.39,1.09,1.73,1.53,3.15,1.53a7.87,7.87,0,0,0,2.85-.48v2.6a10.8,10.8,0,0,1-3.67.56c-3.26,0-5.88-1.86-5.88-5.26A5,5,0,0,1,132,20.27Zm.08,2.54a1.67,1.67,0,0,0-1.78,1.67h3.33A1.45,1.45,0,0,0,132,22.81Z"/><path class="cls-1" d="M145.54,20.38v3.4a3.33,3.33,0,0,0-3.47,1.08v5.63h-3.51V20.58h3.1v1.35A3.9,3.9,0,0,1,145.54,20.38Z"/><path class="cls-1" d="M147.64,30.8a2,2,0,1,1,2.11-2A1.93,1.93,0,0,1,147.64,30.8Z"/><path class="cls-1" d="M161.57,28.28a1.27,1.27,0,0,0,.39-.06v2.17a5.14,5.14,0,0,1-1.77.31,2.62,2.62,0,0,1-2.35-1.1,5.35,5.35,0,0,1-3.45,1.2c-1.9,0-3.45-1.14-3.45-3.06,0-2.49,2.38-3.26,4.3-3.26a10.47,10.47,0,0,1,2.14.23v-.35c0-.7-.66-1.24-2.06-1.24a9.18,9.18,0,0,0-3.47.77v-3a14,14,0,0,1,3.86-.66c3.16,0,5.18,1.1,5.18,4.63v2.76C160.89,28.14,161.22,28.28,161.57,28.28Zm-5.82.15a2.59,2.59,0,0,0,1.63-.52V26.57a4.34,4.34,0,0,0-1.26-.19c-.82,0-1.56.29-1.56,1.08A1.06,1.06,0,0,0,155.75,28.43Z"/><path class="cls-1" d="M165,19.18a1.83,1.83,0,0,1-2-1.94,2,2,0,0,1,4,0A1.82,1.82,0,0,1,165,19.18Zm-1.76,1.4h3.51v9.91h-3.51Z"/></g></g></g></g></svg>